#!OML:ASF F:\VICON\USERDATA\INSTALL\rory3\rory3.ASF
:FULLY-SPECIFIED
:DEGREES
362
root 0.453464 17.7838 5.63915 1.89022 0.23421 0.776006
lowerback 7.31511 -0.149975 -1.80484
upperback -2.14743 -0.235556 2.32366
thorax -6.34099 0.00470282 3.4816
lowerneck -19.1209 -4.61347 -9.93511
upperneck 25.1024 -5.25577 6.51049
head 11.8545 -2.49784 3.26712
rclavicle 1.76421e-015 -4.77083e-015
rhumerus -38.448 -13.2042 -75.111
rradius 36.1475
rwrist 2.15408
rhand -22.3905 21.3035
rfingers 7.12502
rthumb 4.03169 -8.63814
lclavicle 1.76421e-015 -4.77083e-015
lhumerus -41.3995 6.57031 81.0083
lradius 36.7311
lwrist -5.00399
lhand -19.156 19.4861
lfingers 7.12502
lthumb 7.15461 49.3452
rfemur -8.87333 5.48707 21.3614
rtibia 21.9913
rfoot -8.57713 -8.70974
rtoes 6.76543
lfemur -10.7958 -2.89586 -21.8559
ltibia 19.2212
lfoot -7.37767 2.14299
ltoes 4.74844
363
root 0.446151 17.7847 5.65866 1.88753 0.160358 0.808446
lowerback 7.1035 -0.177391 -1.8269
upperback -1.96667 -0.27355 2.3381
thorax -6.02588 -0.0203661 3.50835
lowerneck -19.4683 -4.58212 -9.8433
upperneck 25.1304 -5.16144 6.3621
head 11.9178 -2.4594 3.20822
rclavicle -1.38652e-014 -7.95139e-016
rhumerus -37.984 -14.1314 -74.9456
rradius 36.0887
rwrist 0.689109
rhand -23.1163 21.4099
rfingers 7.12502
rthumb 3.33082 -8.54383
lclavicle -1.38652e-014 -7.95139e-016
lhumerus -40.7985 7.83641 80.1482
lradius 36.2909
lwrist -5.4596
lhand -18.5358 21.1113
lfingers 7.12502
lthumb 7.75317 50.9491
rfemur -8.80412 5.60388 21.3729
rtibia 22.023
rfoot -8.67244 -8.78185
rtoes 6.63662
lfemur -10.6618 -2.9715 -21.8699
ltibia 19.1182
lfoot -7.40925 2.26975
ltoes 4.8388
364
root 0.440367 17.7841 5.67135 1.92374 0.0791103 0.837936
lowerback 7.15404 -0.179001 -1.78214
upperback -1.98608 -0.273207 2.3118
thorax -6.07541 -0.0213532 3.45625
lowerneck -19.581 -4.57061 -9.88418
upperneck 25.211 -5.1389 6.4146
head 11.9722 -2.44538 3.23956
rclavicle -3.27995e-015 7.15625e-015
rhumerus -37.7578 -15.0167 -74.7835
rradius 35.9264
rwrist -0.598613
rhand -23.8138 21.6481
rfingers 7.12502
rthumb 2.65716 -8.31506
lclavicle -3.27995e-015 7.15625e-015
lhumerus -40.6081 8.82667 79.328
lradius 36.0303
lwrist -5.5383
lhand -19.4955 17.1626
lfingers 7.12502
lthumb 6.82681 47.0325
rfemur -8.79241 5.70662 21.3677
rtibia 21.9995
rfoot -8.72302 -8.77228
rtoes 6.59373
lfemur -10.6096 -2.9932 -21.8847
ltibia 19.0558
lfoot -7.4366 2.34093
ltoes 4.79971
365
root 0.432395 17.7834 5.69501 1.93644 -0.0609995 0.840318
lowerback 7.16089 -0.172521 -1.7482
upperback -2.08109 -0.26107 2.3017
thorax -6.18067 -0.0140187 3.42638
lowerneck -19.2935 -4.51269 -9.87756
upperneck 25.1149 -5.0793 6.39738
head 11.871 -2.4247 3.24234
rclavicle -1.19768e-014 2.38542e-014
rhumerus -37.7109 -15.6878 -74.6441
rradius 35.7995
rwrist -1.78625
rhand -24.1936 21.6354
rfingers 7.12502
rthumb 2.29035 -8.33209
lclavicle -1.19768e-014 2.38542e-014
lhumerus -40.667 9.48804 78.6101
lradius 35.9094
lwrist -5.05337
lhand -19.4713 19.2797
lfingers 7.12502
lthumb 6.8502 49.1489
rfemur -8.68958 5.86717 21.3977
rtibia 21.919
rfoot -8.79825 -8.78046
rtoes 6.8435
lfemur -10.532 -3.06053 -21.8644
ltibia 19.0793
lfoot -7.4668 2.55123
ltoes 4.5762
366
root 0.424166 17.7852 5.72026 1.9616 -0.209223 0.848674
lowerback 6.98771 -0.202139 -1.73823
upperback -2.08952 -0.298771 2.29644
thorax -6.08772 -0.0345484 3.41744
lowerneck -18.9523 -4.44421 -9.7173
upperneck 24.9381 -4.99461 6.16844
head 11.7153 -2.40479 3.14184
rclavicle 9.51682e-015 -1.27222e-014
rhumerus -37.6307 -16.0655 -74.6707
rradius 35.9496
rwrist -3.1052
rhand -24.3051 21.5968
rfingers 7.12502
rthumb 2.18271 -8.37175
lclavicle 9.51682e-015 -1.27222e-014
lhumerus -40.5752 9.93694 78.0386
lradius 35.8619
lwrist -4.09313
lhand -18.8141 22.9998
lfingers 7.12502
lthumb 7.48462 52.8474
rfemur -8.56861 6.06448 21.4205
rtibia 21.7931
rfoot -8.85755 -8.81233
rtoes 7.11939
lfemur -10.4876 -3.09005 -21.843
ltibia 19.1339
lfoot -7.50242 2.73686
ltoes 4.35188
367
root 0.416905 17.7859 5.74163 1.9407 -0.171018 0.821018
lowerback 6.88643 -0.272924 -1.67122
upperback -2.01372 -0.386472 2.31029
thorax -5.94362 -0.0832924 3.40184
lowerneck -18.8653 -4.44396 -9.73766
upperneck 24.8317 -4.98654 6.14908
head 11.6567 -2.40613 3.138
rclavicle 1.3828e-014 -1.90833e-014
rhumerus -37.3228 -16.4634 -74.6961
rradius 35.9765
rwrist -4.27891
rhand -24.581 21.2344
rfingers 7.12502
rthumb 1.9162 -8.73678
lclavicle 1.3828e-014 -1.90833e-014
lhumerus -40.3341 10.1153 77.6535
lradius 35.8465
lwrist -2.93189
lhand -18.3987 25.7601
lfingers 7.12502
lthumb 7.88557 55.5931
rfemur -8.36424 6.04808 21.4869
rtibia 21.6329
rfoot -8.87544 -8.84936
rtoes 6.9453
lfemur -10.4148 -3.1725 -21.7867
ltibia 19.1765
lfoot -7.49418 2.78244
ltoes 4.48736
368
root 0.410052 17.7846 5.76679 1.87856 -0.0935023 0.748984
lowerback 6.82816 -0.319792 -1.5477
upperback -1.94513 -0.437688 2.3193
thorax -5.83491 -0.115415 3.34538
lowerneck -18.8425 -4.48432 -9.84633
upperneck 24.7748 -5.04413 6.26931
head 11.6427 -2.42719 3.19144
rclavicle 1.54058e-015 4.77083e-015
rhumerus -36.993 -16.868 -74.7273
rradius 35.8791
rwrist -5.28842
rhand -24.9418 20.464
rfingers 7.12502
rthumb 1.56775 -9.50998
lclavicle 1.54058e-015 4.77083e-015
lhumerus -40.0641 10.1252 77.3186
lradius 35.646
lwrist -1.99703
lhand -19.2711 25.7705
lfingers 7.12502
lthumb 7.04345 55.6333
rfemur -8.09899 5.87687 21.5975
rtibia 21.481
rfoot -8.87474 -8.76895
rtoes 7.19023
lfemur -10.2575 -3.22789 -21.6962
ltibia 19.1813
lfoot -7.5055 2.80262
ltoes 4.54554
369
root 0.405016 17.7839 5.7928 1.81641 -0.0854731 0.709425
lowerback 6.76883 -0.324304 -1.45964
upperback -1.91905 -0.435268 2.32823
thorax -5.77413 -0.118425 3.30327
lowerneck -18.7897 -4.52657 -9.94722
upperneck 24.7573 -5.09147 6.31896
head 11.6349 -2.45268 3.21955
rclavicle 1.52816e-014 -1.19271e-014
rhumerus -36.8515 -16.9401 -74.8089
rradius 36.0328
rwrist -6.26365
rhand -25.0509 19.9588
rfingers 7.12502
rthumb 1.46241 -10.0159
lclavicle 1.52816e-014 -1.19271e-014
lhumerus -39.9493 10.2284 76.9834
lradius 35.6618
lwrist -1.42734
lhand -19.8451 24.5731
lfingers 7.12502
lthumb 6.48933 54.4537
rfemur -7.86029 5.67693 21.6408
rtibia 21.3427
rfoot -8.99356 -8.53094
rtoes 7.71079
lfemur -10.0917 -3.25542 -21.6567
ltibia 19.1692
lfoot -7.54261 2.88397
ltoes 4.36935
